# xmcd
#
# Track frame offsets:
#	150
#	12498
#	22231
#	38431
#	49222
#	60084
#	76041
#	84701
#	95942
#	114740
#	124858
#	135362
#	146248
#	158466
#	170273
#	186183
#	204417
#	219055
#
# Disc length: 3024 seconds
# Revision: 0
# Processed by: cddbd v1.5.2PL0 Copyright (c) Steve Scherf et al.
# Submitted via: dBpowerAMP V12.0
#
DISCID=eb0bce12
DTITLE=Norm Bakker - The Wonder of You
DYEAR=1900
DGENRE=Country
TTITLE0=A Mess of Blues
TTITLE1=His Latest Flame
TTITLE2=You Gave Me A Mountain
TTITLE3=Fool Such As I
TTITLE4=Devil In Disguise
TTITLE5=MY Way
TTITLE6=Teddybear/ Don't Be Cruel
TTITLE7=The Wonder Of You
TTITLE8=Faded Love
TTITLE9=You Don't Know Me
TTITLE10=Stuck On You
TTITLE11=Paralysed
TTITLE12=Little Sister
TTITLE13=Way Down
TTITLE14=Let It Be Me
TTITLE15=An American Trilogy
TTITLE16=Heartbreak Hotel  Medley
TTITLE17=I Can't Help Fallin' in Love With You
EXTD=
EXTT0=
EXTT1=
EXTT2=
EXTT3=
EXTT4=
EXTT5=
EXTT6=
EXTT7=
EXTT8=
EXTT9=
EXTT10=
EXTT11=
EXTT12=
EXTT13=
EXTT14=
EXTT15=
EXTT16=
EXTT17=
PLAYORDER=
